<svg width="100.000000pt" height="100.000000pt" viewBox="0 0 100.000000 100.000000" xmlns="http://www.w3.org/2000/svg">
  <g transform="translate(0.000000,100.000000) scale(0.100000,-0.100000)" fill="#fefefe" stroke="none">
    <path d="M0 500 l0 -500 500 0 500 0 0 500 0 500 -500 0 -500 0 0 -500z m665
474 c8 -4 22 -19 30 -35 l15 -28 -20 -46 c-11 -26 -20 -51 -20 -56 0 -20 28
-7 61 27 18 20 44 40 57 45 l23 9 22 -12 c29 -15 46 -39 47 -64 l0 -21 -40
-46 c-40 -45 -50 -67 -30 -67 6 0 33 11 60 25 l49 25 25 -11 c13 -6 29 -22 36
-34 l13 -23 -7 -26 -6 -26 -20 0 c-11 0 -24 -8 -29 -19 -6 -10 -24 -24 -41
-31 -16 -7 -30 -19 -30 -26 l0 -14 40 0 41 0 24 -25 c14 -13 25 -33 25 -44 0
-11 -10 -32 -23 -47 l-23 -26 -114 -8 c-116 -9 -161 -20 -239 -60 l-43 -21
-28 6 -28 6 -30 -54 c-39 -68 -124 -163 -181 -199 -25 -15 -57 -28 -72 -28
l-27 0 -31 35 c-17 20 -31 46 -31 58 l0 23 -35 13 c-19 6 -44 24 -56 39 l-21
27 5 39 5 38 34 35 c37 39 78 63 106 63 11 0 22 6 25 14 3 8 33 24 66 37 l61
24 0 17 c0 9 -12 83 -26 164 l-25 147 18 25 c10 14 28 28 39 33 l21 7 24 -11
23 -12 12 -35 c7 -19 15 -52 19 -72 l6 -38 14 0 14 0 70 139 c39 77 76 142 83
144 19 8 44 8 63 1z" />
  </g>
  <g transform="translate(0.000000,100.000000) scale(0.100000,-0.100000)" fill="#f0cfa4" stroke="none">
    <path d="M612 928 c-34 -55 -132 -262 -132 -278 0 -9 6 -22 13 -29 6 -7 -6 -3
-28 10 -22 12 -42 24 -44 25 -2 2 -10 38 -18 81 -8 43 -19 84 -25 90 -6 7 -26
13 -44 13 l-34 0 0 -38 c0 -59 36 -186 76 -271 l37 -76 68 -67 c37 -38 75 -68
84 -68 10 0 58 14 107 31 l89 30 92 6 92 6 18 15 c21 19 22 58 1 66 -9 3 -44
6 -78 6 l-63 0 -16 18 -17 18 68 34 c37 19 77 38 89 43 l22 10 6 28 c4 16 3
38 0 50 l-7 21 -26 -6 c-15 -4 -65 -26 -112 -49 -47 -23 -87 -43 -90 -44 -3
-2 -12 2 -20 7 l-15 9 83 84 82 85 0 21 c0 30 -18 61 -35 61 -7 0 -52 -36 -98
-80 l-85 -80 -20 0 -21 0 40 87 40 87 -3 36 -3 35 -26 3 -27 3 -20 -33z m-72
-343 c13 -14 21 -25 18 -25 -2 0 -15 11 -28 25 -13 14 -21 25 -18 25 2 0 15
-11 28 -25z m35 -45 c3 -5 4 -10 1 -10 -3 0 -8 5 -11 10 -3 6 -4 10 -1 10 3 0
8 -4 11 -10z" />
    <path d="M308 388 c-21 -12 -38 -27 -38 -34 0 -7 12 -14 28 -16 l27 -3 3 -23
3 -22 -15 -6 -16 -6 0 -52 0 -52 -60 -59 c-33 -33 -60 -65 -60 -72 l0 -13 28
0 c34 0 82 25 127 68 l35 34 0 41 c0 23 -7 50 -15 61 l-14 19 10 18 c12 23 32
24 50 3 l13 -16 -12 -19 c-16 -25 -15 -59 1 -59 14 0 64 78 73 115 l6 25 -43
45 -44 45 -25 0 c-14 0 -42 -10 -62 -22z" />
    <path d="M202 307 c-18 -18 -32 -39 -32 -46 0 -7 -10 -44 -21 -83 l-21 -70 11
-24 c6 -13 16 -24 24 -24 7 0 38 26 70 58 l57 58 0 48 0 47 -15 15 c-8 9 -15
24 -15 35 0 28 -22 23 -58 -14z" />
  </g>
  <g transform="translate(0.000000,100.000000) scale(0.100000,-0.100000)" fill="#000000" stroke="none">
    <path d="M592 983 c-7 -2 -45 -68 -84 -146 l-72 -142 -8 35 c-5 19 -14 53 -21
75 l-12 40 -28 13 -28 13 -26 -8 c-15 -5 -36 -21 -47 -36 l-20 -27 28 -161
c15 -88 26 -162 24 -163 -2 -1 -30 -13 -63 -27 l-60 -25 -3 -17 -3 -17 15 0
c9 0 44 11 78 25 l62 25 21 -20 c12 -11 25 -20 31 -20 5 0 28 -20 52 -44 l42
-44 -9 -24 c-6 -13 -21 -41 -35 -63 l-25 -40 -1 17 c0 9 5 20 10 23 15 9 12
51 -5 65 l-15 12 -25 -4 -25 -5 0 23 0 23 -17 10 c-10 5 -29 8 -43 7 l-25 -1
-3 -31 -3 -31 15 -16 16 -16 0 -38 0 -39 -59 -58 -59 -58 -11 20 -11 21 20 63
c11 35 20 79 20 99 l0 36 -24 26 -24 26 14 5 c8 3 14 12 14 21 0 34 -65 8
-119 -49 l-34 -35 -4 -48 -5 -48 21 -27 c12 -15 37 -33 56 -39 l35 -13 0 -23
c0 -12 14 -38 31 -58 l31 -35 37 0 37 0 45 28 c56 36 142 130 180 197 l29 52
29 -5 28 -4 43 22 c79 40 124 51 240 60 l114 8 23 26 23 27 0 30 0 30 -25 24
-24 25 -43 0 -43 1 38 20 38 20 -4 12 c-7 19 -31 12 -102 -28 l-66 -37 12 -14
11 -14 68 0 67 0 21 -19 c12 -10 22 -23 22 -28 0 -6 -8 -17 -17 -25 l-18 -15
-90 -6 -91 -5 -113 -38 -113 -37 -94 95 -95 94 -25 140 -24 139 12 23 11 22
22 0 c13 0 27 -6 33 -13 6 -6 17 -48 25 -92 9 -44 20 -81 25 -83 34 -11 106
-68 129 -101 43 -63 75 -50 34 13 -11 17 -41 49 -68 73 l-47 43 17 28 c10 15
41 75 69 135 l51 107 24 6 c13 4 30 4 38 0 l15 -5 0 -25 c0 -13 -18 -63 -40
-111 -22 -48 -40 -91 -40 -96 0 -5 8 -9 17 -9 9 0 54 36 99 80 l82 80 22 -3
c23 -4 40 -23 40 -46 0 -7 -39 -53 -86 -102 l-86 -87 7 -11 c3 -6 12 -11 19
-11 8 0 57 23 110 51 l97 50 15 -11 c8 -7 14 -9 14 -4 0 5 5 2 10 -6 5 -8 7
-30 4 -47 l-6 -33 15 0 c32 0 37 75 7 108 -11 12 -31 24 -44 28 l-24 6 -53
-27 -53 -27 42 47 42 48 0 31 c-1 35 -15 57 -48 75 l-24 13 -26 -7 c-15 -3
-46 -25 -70 -48 l-43 -42 21 50 21 49 -6 23 c-3 13 -14 32 -25 43 l-20 20 -32
-1 c-18 0 -39 -3 -46 -6z m-480 -680 c25 -29 29 -53 16 -94 l-11 -39 -21 6
c-29 8 -56 42 -56 69 0 22 34 75 49 75 4 0 15 -8 23 -17z m222 -38 c-4 -8 1
-26 10 -40 9 -13 16 -38 16 -54 l0 -29 -35 -34 c-42 -39 -92 -68 -120 -68
l-19 0 62 63 62 63 0 51 0 51 13 5 c6 3 13 6 14 6 1 1 0 -6 -3 -14z" />
  </g>
  <g transform="translate(0.000000,100.000000) scale(0.100000,-0.100000)" fill="#f0b986" stroke="none">
    <path d="M603 952 c-7 -4 -33 -52 -58 -106 -25 -53 -58 -116 -74 -140 l-29
-42 28 -16 29 -16 -5 11 c-4 13 104 242 137 288 l20 29 -18 0 c-10 0 -23 -4
-30 -8z" />
    <path d="M703 788 l-85 -83 22 -3 21 -4 82 78 c45 43 84 82 85 86 2 4 -6 8
-18 8 l-22 0 -85 -82z" />
    <path d="M290 815 l-13 -16 25 -151 26 -151 93 -93 94 -94 20 0 c11 0 27 5 35
10 l15 10 -11 0 c-22 0 -117 95 -155 152 -46 71 -86 181 -103 277 l-12 73 -14
-17z" />
    <path d="M810 659 c-52 -28 -97 -52 -99 -54 -2 -3 4 -7 13 -11 l17 -6 90 46
c50 25 97 46 105 46 l16 0 -4 13 c-9 24 -45 16 -138 -34z" />
    <path d="M800 486 l15 -14 78 -4 c42 -2 77 -2 77 -1 0 1 -7 9 -16 17 l-15 16
-77 0 -76 0 14 -14z" />
    <path d="M245 423 l-59 -25 -4 10 c-2 6 -18 -4 -36 -21 l-33 -32 29 -28 c15
-16 28 -38 28 -50 l0 -21 40 39 c22 21 40 35 40 30 0 -5 7 1 16 13 8 12 20 20
25 17 5 -4 9 -1 9 5 0 6 18 19 40 29 l40 18 -23 21 c-13 12 -30 22 -38 21 -8
0 -41 -12 -74 -26z" />
  </g>
  <g transform="translate(0.000000,100.000000) scale(0.100000,-0.100000)" fill="#655e65" stroke="none">
    <path d="M328 863 c7 -3 16 -2 19 1 4 3 -2 6 -13 5 l-19 -1 13 -5z" />
    <path d="M705 830 c-4 -6 -11 -7 -17 -4 l-11 7 7 -11 c3 -5 0 -12 -6 -15 -7
-2 -10 -7 -7 -11 3 -3 16 5 29 19 13 14 21 25 17 25 -3 0 -9 -5 -12 -10z" />
    <path d="M270 640 c0 -7 3 -10 7 -7 3 4 3 10 0 14 -4 3 -7 0 -7 -7z" />
    <path d="M51 304 l-21 -27 0 -32 0 -33 18 -21 c9 -11 31 -24 48 -27 l31 -6 12
45 13 45 -7 23 c-10 33 -35 59 -56 59 -10 0 -27 -12 -38 -26z" />
  </g>
  <g transform="translate(0.000000,100.000000) scale(0.100000,-0.100000)" fill="#1c1815" stroke="none">
    <path d="M682 910 c0 -14 2 -19 5 -12 2 6 2 18 0 25 -3 6 -5 1 -5 -13z" />
    <path d="M749 833 l-14 -18 18 14 c9 7 17 15 17 17 0 8 -8 3 -21 -13z" />
    <path d="M880 790 c0 -7 3 -10 7 -7 3 4 3 10 0 14 -4 3 -7 0 -7 -7z" />
    <path d="M659 743 l-14 -18 18 14 c9 7 17 15 17 17 0 8 -8 3 -21 -13z" />
    <path d="M390 730 c0 -7 3 -10 7 -7 3 4 3 10 0 14 -4 3 -7 0 -7 -7z" />
    <path d="M464 698 l-7 -11 11 7 c12 7 16 16 8 16 -3 0 -8 -5 -12 -12z" />
    <path d="M815 700 c3 -5 8 -10 11 -10 3 0 2 5 -1 10 -3 6 -8 10 -11 10 -3 0
-2 -4 1 -10z" />
    <path d="M903 703 c4 -3 10 -3 14 0 3 4 0 7 -7 7 -7 0 -10 -3 -7 -7z" />
    <path d="M400 670 c0 -7 3 -10 7 -7 3 4 3 10 0 14 -4 3 -7 0 -7 -7z" />
    <path d="M913 593 c4 -3 10 -3 14 0 3 4 0 7 -7 7 -7 0 -10 -3 -7 -7z" />
    <path d="M290 530 c0 -7 3 -10 7 -7 3 4 3 10 0 14 -4 3 -7 0 -7 -7z" />
    <path d="M933 523 c4 -3 10 -3 14 0 3 4 0 7 -7 7 -7 0 -10 -3 -7 -7z" />
    <path d="M858 393 c12 -2 32 -2 45 0 12 2 2 4 -23 4 -25 0 -35 -2 -22 -4z" />
    <path d="M74 368 l-7 -11 11 7 c7 4 12 9 12 12 0 8 -9 4 -16 -8z" />
    <path d="M14 308 l-7 -11 11 7 c12 7 16 16 8 16 -3 0 -8 -5 -12 -12z" />
    <path d="M360 250 c0 -5 5 -10 10 -10 6 0 10 5 10 10 0 6 -4 10 -10 10 -5 0
-10 -4 -10 -10z" />
    <path d="M171 234 l1 -19 5 13 c3 7 2 16 -1 19 -3 4 -6 -2 -5 -13z" />
    <path d="M355 175 c0 -24 3 -41 8 -38 4 2 7 19 7 38 0 19 -3 36 -7 38 -5 3 -8
-14 -8 -38z" />
    <path d="M434 188 l-7 -11 11 7 c12 7 16 16 8 16 -3 0 -8 -5 -12 -12z" />
    <path d="M394 138 l-7 -11 11 7 c7 4 12 9 12 12 0 8 -9 4 -16 -8z" />
  </g>
  <g transform="translate(0.000000,100.000000) scale(0.100000,-0.100000)" fill="#0b0a09" stroke="none">
    <path d="M380 790 c0 -7 3 -10 7 -7 3 4 3 10 0 14 -4 3 -7 0 -7 -7z" />
    <path d="M250 760 c0 -7 3 -10 7 -7 3 4 3 10 0 14 -4 3 -7 0 -7 -7z" />
    <path d="M420 720 c0 -7 3 -10 7 -7 3 4 3 10 0 14 -4 3 -7 0 -7 -7z" />
    <path d="M923 703 c4 -3 10 -3 14 0 3 4 0 7 -7 7 -7 0 -10 -3 -7 -7z" />
    <path d="M784 678 l-7 -11 11 7 c7 4 12 9 12 12 0 8 -9 4 -16 -8z" />
    <path d="M310 580 c0 -7 3 -10 7 -7 3 4 3 10 0 14 -4 3 -7 0 -7 -7z" />
    <path d="M525 570 c3 -5 8 -10 11 -10 3 0 2 5 -1 10 -3 6 -8 10 -11 10 -3 0
-2 -4 1 -10z" />
    <path d="M774 518 l-7 -11 11 7 c7 4 12 9 12 12 0 8 -9 4 -16 -8z" />
    <path d="M223 443 c4 -3 10 -3 14 0 3 4 0 7 -7 7 -7 0 -10 -3 -7 -7z" />
    <path d="M174 418 l-7 -11 11 7 c12 7 16 16 8 16 -3 0 -8 -5 -12 -12z" />
    <path d="M954 378 l-7 -11 11 7 c7 4 12 9 12 12 0 8 -9 4 -16 -8z" />
    <path d="M171 254 l1 -19 5 13 c3 7 2 16 -1 19 -3 4 -6 -2 -5 -13z" />
    <path d="M454 218 l-7 -11 11 7 c12 7 16 16 8 16 -3 0 -8 -5 -12 -12z" />
    <path d="M209 113 l-24 -28 28 24 c15 14 27 26 27 28 0 8 -8 1 -31 -24z" />
  </g>
  <g transform="translate(0.000000,100.000000) scale(0.100000,-0.100000)" fill="#edcba0" stroke="none">
    <path d="M643 953 c4 -3 10 -3 14 0 3 4 0 7 -7 7 -7 0 -10 -3 -7 -7z" />
    <path d="M328 833 c7 -3 16 -2 19 1 4 3 -2 6 -13 5 l-19 -1 13 -5z" />
    <path d="M380 780 c0 -7 3 -10 7 -7 3 4 3 10 0 14 -4 3 -7 0 -7 -7z" />
    <path d="M715 600 c3 -5 8 -10 11 -10 3 0 2 5 -1 10 -3 6 -8 10 -11 10 -3 0
-2 -4 1 -10z" />
    <path d="M555 580 c3 -5 8 -10 11 -10 3 0 2 5 -1 10 -3 6 -8 10 -11 10 -3 0
-2 -4 1 -10z" />
    <path d="M949 413 l-14 -18 18 14 c16 13 21 21 13 21 -2 0 -10 -8 -17 -17z" />
    <path d="M480 395 c13 -14 26 -25 28 -25 3 0 -5 11 -18 25 -13 14 -26 25 -28
25 -3 0 5 -11 18 -25z" />
    <path d="M290 360 c0 -5 5 -10 11 -10 5 0 7 5 4 10 -3 6 -8 10 -11 10 -2 0 -4
-4 -4 -10z" />
    <path d="M425 350 c3 -5 8 -10 11 -10 3 0 2 5 -1 10 -3 6 -8 10 -11 10 -3 0
-2 -4 1 -10z" />
    <path d="M325 340 c3 -5 8 -10 11 -10 3 0 2 5 -1 10 -3 6 -8 10 -11 10 -3 0
-2 -4 1 -10z" />
    <path d="M344 128 l-7 -11 11 7 c12 7 16 16 8 16 -3 0 -8 -5 -12 -12z" />
    <path d="M314 98 l-7 -11 11 7 c7 4 12 9 12 12 0 8 -9 4 -16 -8z" />
  </g>
  <g transform="translate(0.000000,100.000000) scale(0.100000,-0.100000)" fill="#ededed" stroke="none">
    <path d="M685 970 c3 -5 8 -10 11 -10 3 0 2 5 -1 10 -3 6 -8 10 -11 10 -3 0
-2 -4 1 -10z" />
    <path d="M754 878 l-7 -11 11 7 c7 4 12 9 12 12 0 8 -9 4 -16 -8z" />
    <path d="M375 850 c3 -5 8 -10 11 -10 3 0 2 5 -1 10 -3 6 -8 10 -11 10 -3 0
-2 -4 1 -10z" />
    <path d="M839 733 l-24 -28 28 24 c15 14 27 26 27 28 0 8 -8 1 -31 -24z" />
    <path d="M923 733 c4 -3 10 -3 14 0 3 4 0 7 -7 7 -7 0 -10 -3 -7 -7z" />
    <path d="M960 516 c0 -2 8 -10 18 -17 l17 -14 -14 18 c-13 16 -21 21 -21 13z" />
    <path d="M858 363 c12 -2 32 -2 45 0 12 2 2 4 -23 4 -25 0 -35 -2 -22 -4z" />
    <path d="M743 353 c4 -3 10 -3 14 0 3 4 0 7 -7 7 -7 0 -10 -3 -7 -7z" />
    <path d="M404 148 l-7 -11 11 7 c7 4 12 9 12 12 0 8 -9 4 -16 -8z" />
    <path d="M110 90 c0 -7 3 -10 7 -7 3 4 3 10 0 14 -4 3 -7 0 -7 -7z" />
  </g>
  <g transform="translate(0.000000,100.000000) scale(0.100000,-0.100000)" fill="#e9c499" stroke="none">
    <path d="M475 610 c3 -5 8 -10 11 -10 3 0 2 5 -1 10 -3 6 -8 10 -11 10 -3 0
-2 -4 1 -10z" />
    <path d="M525 610 c3 -5 8 -10 11 -10 3 0 2 5 -1 10 -3 6 -8 10 -11 10 -3 0
-2 -4 1 -10z" />
    <path d="M953 463 c4 -3 10 -3 14 0 3 4 0 7 -7 7 -7 0 -10 -3 -7 -7z" />
    <path d="M290 360 c0 -7 3 -10 7 -7 3 4 3 10 0 14 -4 3 -7 0 -7 -7z" />
    <path d="M250 330 c0 -7 3 -10 7 -7 3 4 3 10 0 14 -4 3 -7 0 -7 -7z" />
    <path d="M345 220 c3 -5 8 -10 11 -10 3 0 2 5 -1 10 -3 6 -8 10 -11 10 -3 0
-2 -4 1 -10z" />
    <path d="M392 200 c0 -14 2 -19 5 -12 2 6 2 18 0 25 -3 6 -5 1 -5 -13z" />
    <path d="M140 130 c0 -7 3 -10 7 -7 3 4 3 10 0 14 -4 3 -7 0 -7 -7z" />
  </g>
  <g transform="translate(0.000000,100.000000) scale(0.100000,-0.100000)" fill="#2c261d" stroke="none">
    <path d="M813 863 c4 -3 10 -3 14 0 3 4 0 7 -7 7 -7 0 -10 -3 -7 -7z" />
    <path d="M764 848 l-7 -11 11 7 c12 7 16 16 8 16 -3 0 -8 -5 -12 -12z" />
    <path d="M734 818 l-7 -11 11 7 c12 7 16 16 8 16 -3 0 -8 -5 -12 -12z" />
    <path d="M679 763 l-14 -18 18 14 c9 7 17 15 17 17 0 8 -8 3 -21 -13z" />
    <path d="M644 728 l-7 -11 11 7 c12 7 16 16 8 16 -3 0 -8 -5 -12 -12z" />
    <path d="M795 690 c-3 -5 -1 -10 4 -10 6 0 11 5 11 10 0 6 -2 10 -4 10 -3 0
-8 -4 -11 -10z" />
    <path d="M300 640 c0 -7 3 -10 7 -7 3 4 3 10 0 14 -4 3 -7 0 -7 -7z" />
    <path d="M924 568 l-7 -11 11 7 c7 4 12 9 12 12 0 8 -9 4 -16 -8z" />
    <path d="M833 393 c4 -3 10 -3 14 0 3 4 0 7 -7 7 -7 0 -10 -3 -7 -7z" />
    <path d="M290 300 c0 -5 5 -10 10 -10 6 0 10 5 10 10 0 6 -4 10 -10 10 -5 0
-10 -4 -10 -10z" />
    <path d="M553 283 c4 -3 10 -3 14 0 3 4 0 7 -7 7 -7 0 -10 -3 -7 -7z" />
    <path d="M360 261 c0 -11 26 -22 34 -14 3 3 3 10 0 14 -7 12 -34 11 -34 0z" />
    <path d="M83 133 c4 -3 10 -3 14 0 3 4 0 7 -7 7 -7 0 -10 -3 -7 -7z" />
  </g>
  <g transform="translate(0.000000,100.000000) scale(0.100000,-0.100000)" fill="#3d342b" stroke="none">
    <path d="M385 840 c3 -5 8 -10 11 -10 3 0 2 5 -1 10 -3 6 -8 10 -11 10 -3 0
-2 -4 1 -10z" />
    <path d="M709 793 l-24 -28 28 24 c15 14 27 26 27 28 0 8 -8 1 -31 -24z" />
    <path d="M629 713 l-14 -18 18 14 c16 13 21 21 13 21 -2 0 -10 -8 -17 -17z" />
    <path d="M290 700 c0 -7 3 -10 7 -7 3 4 3 10 0 14 -4 3 -7 0 -7 -7z" />
    <path d="M325 270 c3 -5 8 -10 11 -10 3 0 2 5 -1 10 -3 6 -8 10 -11 10 -3 0
-2 -4 1 -10z" />
    <path d="M304 88 l-7 -11 11 7 c12 7 16 16 8 16 -3 0 -8 -5 -12 -12z" />
    <path d="M314 58 l-7 -11 11 7 c12 7 16 16 8 16 -3 0 -8 -5 -12 -12z" />
  </g>
  <g transform="translate(0.000000,100.000000) scale(0.100000,-0.100000)" fill="#dedede" stroke="none">
    <path d="M574 968 l-7 -11 11 7 c12 7 16 16 8 16 -3 0 -8 -5 -12 -12z" />
    <path d="M903 733 c4 -3 10 -3 14 0 3 4 0 7 -7 7 -7 0 -10 -3 -7 -7z" />
    <path d="M804 698 l-19 -23 23 19 c21 18 27 26 19 26 -2 0 -12 -10 -23 -22z" />
    <path d="M260 700 c0 -7 3 -10 7 -7 3 4 3 10 0 14 -4 3 -7 0 -7 -7z" />
    <path d="M280 580 c0 -7 3 -10 7 -7 3 4 3 10 0 14 -4 3 -7 0 -7 -7z" />
    <path d="M833 363 c4 -3 10 -3 14 0 3 4 0 7 -7 7 -7 0 -10 -3 -7 -7z" />
  </g>
  <g transform="translate(0.000000,100.000000) scale(0.100000,-0.100000)" fill="#4e443a" stroke="none">
    <path d="M798 893 c6 -2 18 -2 25 0 6 3 1 5 -13 5 -14 0 -19 -2 -12 -5z" />
    <path d="M365 820 c3 -5 8 -10 11 -10 3 0 2 5 -1 10 -3 6 -8 10 -11 10 -3 0
-2 -4 1 -10z" />
    <path d="M280 760 c0 -7 3 -10 7 -7 3 4 3 10 0 14 -4 3 -7 0 -7 -7z" />
    <path d="M823 393 c4 -3 10 -3 14 0 3 4 0 7 -7 7 -7 0 -10 -3 -7 -7z" />
    <path d="M803 363 c4 -3 10 -3 14 0 3 4 0 7 -7 7 -7 0 -10 -3 -7 -7z" />
    <path d="M285 320 l-6 -10 16 0 16 0 -6 10 c-3 6 -8 10 -10 10 -2 0 -7 -4 -10
-10z" />
  </g>
  <g transform="translate(0.000000,100.000000) scale(0.100000,-0.100000)" fill="#ba9b78" stroke="none">
    <path d="M798 863 c7 -3 16 -2 19 1 4 3 -2 6 -13 5 l-19 -1 13 -5z" />
    <path d="M535 600 c3 -5 8 -10 11 -10 3 0 2 5 -1 10 -3 6 -8 10 -11 10 -3 0
-2 -4 1 -10z" />
    <path d="M808 393 c7 -3 16 -2 19 1 4 3 -2 6 -13 5 l-19 -1 13 -5z" />
    <path d="M325 280 l-6 -10 15 6 c18 7 21 14 7 14 -6 0 -13 -4 -16 -10z" />
    <path d="M274 138 l-29 -33 33 29 c17 17 32 31 32 33 0 8 -8 1 -36 -29z" />
    <path d="M199 63 l-24 -28 28 24 c15 14 27 26 27 28 0 8 -8 1 -31 -24z" />
  </g>
  <g transform="translate(0.000000,100.000000) scale(0.100000,-0.100000)" fill="#c3a784" stroke="none">
    <path d="M680 910 c0 -7 3 -10 7 -7 3 4 3 10 0 14 -4 3 -7 0 -7 -7z" />
    <path d="M545 590 c3 -5 8 -10 11 -10 3 0 2 5 -1 10 -3 6 -8 10 -11 10 -3 0
-2 -4 1 -10z" />
    <path d="M234 98 l-19 -23 23 19 c21 18 27 26 19 26 -2 0 -12 -10 -23 -22z" />
  </g>
  <g transform="translate(0.000000,100.000000) scale(0.100000,-0.100000)" fill="#a8a8a8" stroke="none">
    <path d="M913 733 c4 -3 10 -3 14 0 3 4 0 7 -7 7 -7 0 -10 -3 -7 -7z" />
    <path d="M818 363 c7 -3 16 -2 19 1 4 3 -2 6 -13 5 l-19 -1 13 -5z" />
  </g>
  <g transform="translate(0.000000,100.000000) scale(0.100000,-0.100000)" fill="#8e755a" stroke="none">
    <path d="M913 703 c4 -3 10 -3 14 0 3 4 0 7 -7 7 -7 0 -10 -3 -7 -7z" />
    <path d="M703 603 c4 -3 10 -3 14 0 3 4 0 7 -7 7 -7 0 -10 -3 -7 -7z" />
    <path d="M320 530 c0 -7 3 -10 7 -7 3 4 3 10 0 14 -4 3 -7 0 -7 -7z" />
  </g>
  <g transform="translate(0.000000,100.000000) scale(0.100000,-0.100000)" fill="#60574d" stroke="none">
    <path d="M729 853 l-24 -28 28 24 c25 23 32 31 24 31 -2 0 -14 -12 -28 -27z" />
    <path d="M300 480 c0 -7 3 -10 7 -7 3 4 3 10 0 14 -4 3 -7 0 -7 -7z" />
    <path d="M344 288 l-7 -11 11 7 c7 4 12 9 12 12 0 8 -9 4 -16 -8z" />
  </g>
  <g transform="translate(0.000000,100.000000) scale(0.100000,-0.100000)" fill="#c7c7c7" stroke="none">
    <path d="M712 910 c0 -14 2 -19 5 -12 2 6 2 18 0 25 -3 6 -5 1 -5 -13z" />
  </g>
  <g transform="translate(0.000000,100.000000) scale(0.100000,-0.100000)" fill="#f6e266" stroke="none">
    <path d="M282 309 c2 -6 8 -10 13 -10 5 0 11 4 13 10 2 6 -4 11 -13 11 -9 0
-15 -5 -13 -11z" />
    <path d="M367 264 c-8 -8 1 -24 14 -24 5 0 9 7 9 15 0 15 -12 20 -23 9z" />
  </g>
  <g transform="translate(0.000000,100.000000) scale(0.100000,-0.100000)" fill="#757575" stroke="none">
    <path d="M710 910 c0 -7 3 -10 7 -7 3 4 3 10 0 14 -4 3 -7 0 -7 -7z" />
  </g>
  <g transform="translate(0.000000,100.000000) scale(0.100000,-0.100000)" fill="#dcb286" stroke="none">
    <path d="M310 590 c0 -7 3 -10 7 -7 3 4 3 10 0 14 -4 3 -7 0 -7 -7z" />
  </g>
  <g transform="translate(0.000000,100.000000) scale(0.100000,-0.100000)" fill="#8d8d8d" stroke="none" />
  <g transform="translate(0.000000,100.000000) scale(0.100000,-0.100000)" fill="#ae8e63" stroke="none" />
</svg>